# xmcd
#
# Track frame offsets: 
#        150
#        10932
#        19992
#        38412
#        49865
#        60820
#        71942
#        83285
#        92702
#        103900
#        117157
#        128035
#        139127
#        149920
#        160675
#        177930
#        189697
#
# Disc length: 2693 seconds
#
# Revision: 1
# Processed by: cddbd v1.5.2PL0 Copyright (c) Steve Scherf et al.
# Submitted via: ExactAudioCopy v1.1
#
DISCID=e60a8311
DTITLE=The Glories - Special Singles For The Glories
DYEAR=2005
DGENRE=R&B
TTITLE0=I Worship You Baby (alt) (mono)
TTITLE1=My Sweet, Sweet Baby (mono)
TTITLE2=There He Is (long version) (mono)
TTITLE3=I Stand Accused (Of Loving You) (mono)
TTITLE4=Security (mono)
TTITLE5=Don't Dial My Number (mono)
TTITLE6=(I Love You Babe But) Give Me My Freedom (mono)
TTITLE7=Ooh, Baby That's Love (mono)
TTITLE8=Dark End Of The Street (mono)
TTITLE9=Don't Make The Good Girls Go Bad (mono)
TTITLE10=I Worship You Baby (mono single version)
TTITLE11=Wish They Could Write A Song (mono)
TTITLE12=Sing Me A Love Song (mono)
TTITLE13=Stand By! (I'm Coming Home) (mono)
TTITLE14=Try A Little Tenderness (mono)
TTITLE15=No News (mono)
TTITLE16=There He Is (mono single version)
EXTD=
EXTT0=
EXTT1=
EXTT2=
EXTT3=
EXTT4=
EXTT5=
EXTT6=
EXTT7=
EXTT8=
EXTT9=
EXTT10=
EXTT11=
EXTT12=
EXTT13=
EXTT14=
EXTT15=
EXTT16=
PLAYORDER=
